<svg width="33" height="37" viewBox="0 0 33 37" fill="none" xmlns="http://www.w3.org/2000/svg">
<path d="M16.7741 0C18.9812 0 21.0551 0.478257 22.9958 1.43477C24.9366 2.39128 26.63 3.69562 28.076 5.34778C29.522 6.99994 30.6636 8.92746 31.5008 11.1303C32.338 13.3332 32.7566 15.6955 32.7566 18.2172C32.7566 20.739 32.338 23.1085 31.5008 25.3259C30.6636 27.5433 29.522 29.478 28.076 31.1302C26.63 32.7823 24.9366 34.0867 22.9958 35.0432C21.0551 35.9997 18.9812 36.478 16.7741 36.478C14.567 36.478 12.4994 35.9997 10.5713 35.0432C8.64327 34.0867 6.95623 32.7823 5.51019 31.1302C4.06415 29.478 2.92254 27.5433 2.08536 25.3259C1.24818 23.1085 0.82959 20.739 0.82959 18.2172C0.82959 15.6955 1.24818 13.3332 2.08536 11.1303C2.92254 8.92746 4.06415 6.99994 5.51019 5.34778C6.95623 3.69562 8.64327 2.39128 10.5713 1.43477C12.4994 0.478257 14.567 0 16.7741 0ZM22.7865 7.95646H19.3998C18.7402 7.95646 18.1313 8.08689 17.5732 8.34776C17.0151 8.60863 16.5267 8.95645 16.1081 9.39123C15.6895 9.82601 15.3661 10.3188 15.1378 10.8695C14.9094 11.4202 14.7953 11.9709 14.7953 12.5216V14.826H11.789V19.3477H14.7953V28.478H18.7909V19.3477H21.7591V14.826H18.7909V13.6521C18.7909 13.3042 18.9114 13.0289 19.1524 12.826C19.3934 12.6231 19.6027 12.5216 19.7803 12.5216H22.7865V7.95646Z" fill="#79AC78"/>
</svg>
