<svg width="32" height="37" viewBox="0 0 32 37" fill="none" xmlns="http://www.w3.org/2000/svg">
<path d="M21.361 18.2608C21.361 17.7668 21.2974 17.2293 21.1702 16.6482H22.7723V25.4518C22.7723 25.6842 22.7024 25.8731 22.5625 26.0183C22.4226 26.1636 22.251 26.2362 22.0476 26.2362H9.498C9.29456 26.2362 9.12926 26.1636 9.00212 26.0183C8.87497 25.8731 8.81139 25.6842 8.81139 25.4518V16.6482H10.3753C10.2482 17.2293 10.1846 17.7668 10.1846 18.2608C10.1846 19.1324 10.3308 19.9605 10.6233 20.7449C10.9157 21.5294 11.3162 22.2049 11.8248 22.7715C12.3334 23.3381 12.931 23.7884 13.6176 24.1225C14.3042 24.4566 15.029 24.6237 15.7918 24.6237C16.5547 24.6237 17.2795 24.4566 17.9661 24.1225C18.6527 23.7884 19.2439 23.3381 19.7398 22.7715C20.2357 22.2049 20.6299 21.5294 20.9223 20.7449C21.2147 19.9605 21.361 19.1324 21.361 18.2608ZM15.7918 22.2267C15.3087 22.2267 14.8509 22.125 14.4186 21.9216C13.9863 21.7183 13.6113 21.435 13.2934 21.0718C12.9755 20.7086 12.7276 20.2873 12.5496 19.8079C12.3716 19.3285 12.2825 18.8128 12.2825 18.2608C12.2825 17.7087 12.3716 17.1858 12.5496 16.6918C12.7276 16.1979 12.9755 15.7693 13.2934 15.4062C13.6113 15.043 13.9863 14.7597 14.4186 14.5563C14.8509 14.3529 15.3087 14.2512 15.7918 14.2512C16.275 14.2512 16.7264 14.3529 17.146 14.5563C17.5656 14.7597 17.9343 15.043 18.2522 15.4062C18.57 15.7693 18.818 16.1979 18.996 16.6918C19.174 17.1858 19.263 17.7087 19.263 18.2608C19.263 18.8128 19.174 19.3285 18.996 19.8079C18.818 20.2873 18.57 20.7086 18.2522 21.0718C17.9343 21.435 17.5656 21.7183 17.146 21.9216C16.7264 22.125 16.275 22.2267 15.7918 22.2267ZM22.0476 10.2853C22.251 10.2853 22.4226 10.3579 22.5625 10.5032C22.7024 10.6485 22.7723 10.8373 22.7723 11.0698V13.4668C22.7723 13.6992 22.7024 13.8881 22.5625 14.0333C22.4226 14.1786 22.251 14.2512 22.0476 14.2512H19.9496C19.7462 14.2512 19.5809 14.1786 19.4537 14.0333C19.3266 13.8881 19.263 13.6992 19.263 13.4668V11.0698C19.263 10.8373 19.3266 10.6485 19.4537 10.5032C19.5809 10.3579 19.7462 10.2853 19.9496 10.2853H22.0476ZM23.9166 0C25.0101 0 26.0464 0.2397 27.0254 0.7191C28.0045 1.1985 28.8564 1.85223 29.5811 2.68028C30.3059 3.50833 30.878 4.4744 31.2976 5.57847C31.7172 6.68254 31.927 7.85925 31.927 9.10859V27.3258C31.927 28.5751 31.7172 29.7591 31.2976 30.8777C30.878 31.9963 30.3059 32.9696 29.5811 33.7977C28.8564 34.6257 28.0045 35.2795 27.0254 35.7589C26.0464 36.2383 25.0101 36.478 23.9166 36.478H7.97221C6.87874 36.478 5.84883 36.2383 4.8825 35.7589C3.91618 35.2795 3.07064 34.6257 2.34589 33.7977C1.62114 32.9696 1.04898 31.9963 0.629385 30.8777C0.209795 29.7591 0 28.5751 0 27.3258V9.10859C0 7.85925 0.209795 6.68254 0.629385 5.57847C1.04898 4.4744 1.62114 3.50833 2.34589 2.68028C3.07064 1.85223 3.91618 1.1985 4.8825 0.7191C5.84883 0.2397 6.87874 0 7.97221 0H23.9166ZM24.8703 10.2853C24.8703 9.61705 24.6668 9.05049 24.2599 8.58561C23.8531 8.12074 23.3572 7.8883 22.7723 7.8883H8.81139C8.22651 7.8883 7.73063 8.12074 7.32376 8.58561C6.91688 9.05049 6.71344 9.61705 6.71344 10.2853V26.2362C6.71344 26.9045 6.91688 27.4711 7.32376 27.9359C7.73063 28.4008 8.22651 28.6332 8.81139 28.6332H22.7723C23.3572 28.6332 23.8531 28.4008 24.2599 27.9359C24.6668 27.4711 24.8703 26.9045 24.8703 26.2362V10.2853Z" fill="#79AC78"/>
</svg>
