<svg width="32" height="37" viewBox="0 0 32 37" fill="none" xmlns="http://www.w3.org/2000/svg">
<path d="M24.028 0C25.1215 0 26.1514 0.2397 27.1177 0.7191C28.0841 1.1985 28.9296 1.85223 29.6544 2.68028C30.3791 3.50833 30.9513 4.4744 31.3709 5.57847C31.7904 6.68254 32.0002 7.85925 32.0002 9.10859V27.3258C32.0002 28.5751 31.7904 29.7591 31.3709 30.8777C30.9513 31.9963 30.3791 32.9696 29.6544 33.7977C28.9296 34.6257 28.0841 35.2795 27.1177 35.7589C26.1514 36.2383 25.1215 36.478 24.028 36.478H8.04546C6.95198 36.478 5.92208 36.2383 4.95575 35.7589C3.98942 35.2795 3.14388 34.6257 2.41913 33.7977C1.69439 32.9696 1.12222 31.9963 0.702627 30.8777C0.283037 29.7591 0.0732422 28.5751 0.0732422 27.3258V9.10859C0.0732422 7.85925 0.283037 6.68254 0.702627 5.57847C1.12222 4.4744 1.69439 3.50833 2.41913 2.68028C3.14388 1.85223 3.98942 1.1985 4.95575 0.7191C5.92208 0.2397 6.95198 0 8.04546 0H24.028ZM11.0589 13.6847H7.0537V28.5025H11.0589V13.6847ZM9.07536 12.508C9.60938 12.508 10.0735 12.2901 10.4676 11.8542C10.8618 11.4184 11.0589 10.8809 11.0589 10.2417C11.0589 9.60252 10.8618 9.06501 10.4676 8.6292C10.0735 8.19338 9.60938 7.97547 9.07536 7.97547C8.51591 7.97547 8.0391 8.19338 7.64494 8.6292C7.25078 9.06501 7.0537 9.60252 7.0537 10.2417C7.0537 10.8809 7.25078 11.4184 7.64494 11.8542C8.0391 12.2901 8.51591 12.508 9.07536 12.508ZM25.0198 19.9169C25.0198 18.8709 24.7655 17.8467 24.2569 16.8444C23.7483 15.842 23.0871 15.0793 22.2734 14.5563C21.5359 14.0914 20.6777 13.8445 19.6986 13.8154C18.7196 13.7864 17.8359 13.9752 17.0476 14.382V13.6847H13.0424V28.5025H17.0476V19.4375L18.6878 18.5223C18.8912 18.406 19.171 18.3479 19.527 18.3479C19.883 18.3479 20.15 18.4206 20.328 18.5658C20.4806 18.653 20.6332 18.8419 20.7857 19.1324C20.9383 19.423 21.0146 19.6844 21.0146 19.9169V28.5025H25.0198V19.9169Z" fill="#79AC78"/>
</svg>
