<svg width="55" height="54" viewBox="0 0 55 54" fill="none" xmlns="http://www.w3.org/2000/svg">
<path d="M36.4875 27.2497C36.4861 26.5311 36.3762 25.7493 36.1577 24.9043L38.8905 24.8992L38.9148 37.7069C38.9155 38.045 38.7967 38.32 38.5585 38.5318C38.3204 38.7436 38.0278 38.8499 37.6808 38.8505L16.274 38.8912C15.927 38.8919 15.6448 38.7867 15.4276 38.5758C15.2103 38.3649 15.1013 38.0903 15.1007 37.7522L15.0763 24.9444L17.744 24.9394C17.5287 25.7852 17.4218 26.5674 17.4231 27.2859C17.4256 28.554 17.6773 29.7583 18.1783 30.8986C18.6793 32.0389 19.3644 33.0204 20.2335 33.843C21.1026 34.6656 22.1232 35.3189 23.2953 35.8027C24.4674 36.2866 25.7041 36.5273 27.0055 36.5248C28.3068 36.5224 29.5426 36.277 30.7128 35.7886C31.8831 35.3003 32.8904 34.6432 33.7347 33.8173C34.579 32.9915 35.2494 32.0074 35.7461 30.8652C36.2428 29.723 36.4899 28.5178 36.4875 27.2497ZM26.9988 33.0376C26.1747 33.0392 25.3936 32.8927 24.6556 32.5982C23.9176 32.3037 23.277 31.8928 22.7338 31.3655C22.1906 30.8381 21.7665 30.226 21.4615 29.5291C21.1566 28.8323 21.0033 28.0823 21.0018 27.2791C21.0003 26.476 21.1506 25.7149 21.4529 24.9957C21.7552 24.2765 22.1769 23.6523 22.7181 23.1229C23.2593 22.5935 23.8984 22.1801 24.6352 21.8828C25.3721 21.5855 26.1526 21.4361 26.9768 21.4345C27.8009 21.433 28.5712 21.5795 29.2875 21.874C30.0037 22.1685 30.6335 22.5794 31.1767 23.1068C31.7199 23.6341 32.1441 24.2568 32.4491 24.9748C32.7541 25.6928 32.9073 26.4534 32.9089 27.2565C32.9104 28.0596 32.76 28.8102 32.4577 29.5082C32.1554 30.2063 31.7336 30.82 31.1924 31.3494C30.6512 31.8788 30.023 32.2921 29.3078 32.5894C28.5927 32.8866 27.823 33.036 26.9988 33.0376ZM37.6366 15.6444C37.9837 15.6438 38.2766 15.7489 38.5156 15.9598C38.7546 16.1707 38.8744 16.4452 38.8751 16.7834L38.8817 20.2706C38.8823 20.6088 38.7636 20.8838 38.5254 21.0956C38.2872 21.3074 37.9946 21.4136 37.6476 21.4142L34.069 21.4211C33.7219 21.4217 33.4398 21.3166 33.2225 21.1056C33.0052 20.8947 32.8963 20.6202 32.8956 20.282L32.889 16.7947C32.8883 16.4566 32.9963 16.1816 33.2127 15.9699C33.4292 15.7581 33.711 15.6519 34.058 15.6512L37.6366 15.6444ZM40.7964 0.674877C42.6616 0.671331 44.4299 1.0167 46.1013 1.71097C47.7726 2.40525 49.2276 3.35355 50.4661 4.55589C51.7047 5.75823 52.6833 7.16184 53.4021 8.76673C54.1209 10.3716 54.482 12.0829 54.4855 13.9005L54.5359 40.4036C54.5393 42.2212 54.1847 43.9444 53.4721 45.5731C52.7595 47.2019 51.7862 48.6197 50.5522 49.8268C49.3182 51.0338 47.8669 51.9877 46.1982 52.6883C44.5295 53.3889 42.7625 53.741 40.8973 53.7445L13.6997 53.7963C11.8345 53.7998 10.077 53.4544 8.42737 52.7601C6.7777 52.0658 5.33359 51.1175 4.09505 49.9151C2.8565 48.7128 1.87782 47.2986 1.159 45.6726C0.440178 44.0465 0.0790395 42.3247 0.0755838 40.5071L0.0251946 14.004C0.0217389 12.1864 0.376347 10.4738 1.08902 8.86619C1.80169 7.25858 2.77501 5.85126 4.00898 4.64422C5.24294 3.43718 6.68343 2.48337 8.33044 1.78278C9.97746 1.0822 11.7336 0.730133 13.5988 0.726587L40.7964 0.674877ZM42.4515 15.6353C42.4497 14.6631 42.1011 13.8395 41.4058 13.1645C40.7104 12.4895 39.8639 12.1529 38.8663 12.1548L15.0521 12.2001C14.0544 12.202 13.2092 12.5418 12.5164 13.2194C11.8237 13.897 11.4782 14.722 11.4801 15.6942L11.5242 38.9002C11.526 39.8725 11.8746 40.6961 12.57 41.3711C13.2653 42.046 14.1118 42.3826 15.1095 42.3807L38.9236 42.3354C39.9213 42.3335 40.7665 41.9938 41.4593 41.3161C42.152 40.6385 42.4975 39.8136 42.4956 38.8414L42.4515 15.6353Z" fill="white"/>
</svg>
