<svg width="55" height="54" viewBox="0 0 55 54" fill="none" xmlns="http://www.w3.org/2000/svg">
<path d="M41.1398 0.0258275C43.005 0.0222813 44.7625 0.367667 46.4121 1.06198C48.0618 1.7563 49.5059 2.70463 50.7445 3.90696C51.983 5.1093 52.9617 6.51292 53.6805 8.11781C54.3992 9.7227 54.7603 11.4339 54.7638 13.2515L54.8142 39.7547C54.8177 41.5723 54.4631 43.2954 53.7504 44.9242C53.0378 46.5529 52.0645 47.9708 50.8305 49.1779C49.5966 50.3849 48.1561 51.3387 46.5091 52.0393C44.8621 52.7399 43.1059 53.0919 41.2407 53.0955L13.978 53.1473C12.1128 53.1509 10.3554 52.8055 8.70569 52.1112C7.05602 51.4169 5.61191 50.4685 4.37337 49.2662C3.13482 48.0639 2.15614 46.6497 1.43732 45.0236C0.718498 43.3976 0.35736 41.6758 0.353904 39.8582L0.303515 13.3551C0.300059 11.5375 0.654668 9.82488 1.36734 8.21727C2.08001 6.60965 3.05333 5.20233 4.2873 3.99529C5.52126 2.78825 6.96175 1.83444 8.60876 1.13386C10.2558 0.433273 12.0119 0.0812071 13.8771 0.0776608L41.1398 0.0258275ZM19.0552 19.9769L12.2233 19.9899L12.2642 41.5475L19.0962 41.5345L19.0552 19.9769ZM15.6685 18.2714C16.5794 18.2697 17.3705 17.9512 18.0416 17.3159C18.7128 16.6805 19.0474 15.8979 19.0457 14.968C19.0439 14.038 18.7062 13.2567 18.0327 12.6239C17.3591 11.9912 16.5669 11.6756 15.656 11.6774C14.7017 11.6792 13.8889 11.9977 13.2178 12.6331C12.5467 13.2684 12.212 14.051 12.2137 14.981C12.2155 15.9109 12.5532 16.6922 13.2267 17.325C13.9003 17.9578 14.7142 18.2733 15.6685 18.2714ZM42.8866 28.9985C42.8837 27.4768 42.4471 25.9876 41.5768 24.531C40.7065 23.0743 39.5766 21.9669 38.187 21.2087C36.9278 20.5347 35.4631 20.1782 33.793 20.1391C32.1229 20.1 30.6161 20.3777 29.2725 20.972L29.2706 19.9575L22.4386 19.9705L22.4796 41.5281L29.3116 41.5151L29.2865 28.3269L32.0818 26.9901C32.4285 26.8204 32.9055 26.7349 33.5128 26.7338C34.12 26.7326 34.5757 26.8374 34.8797 27.0482C35.1403 27.1745 35.401 27.4488 35.6621 27.871C35.9232 28.2932 36.054 28.6734 36.0547 29.0115L36.0784 41.5022L42.9104 41.4892L42.8866 28.9985Z" fill="white"/>
</svg>
