<svg width="33" height="31" viewBox="0 0 33 31" fill="none" xmlns="http://www.w3.org/2000/svg">
<path d="M32.3787 4.26426C31.4346 5.8332 30.3403 7.10797 29.0958 8.08856V9.11818C29.0958 11.5697 28.6882 14.0579 27.8728 16.5829C27.0575 19.1079 25.8667 21.3878 24.3004 23.4225C22.734 25.4573 20.7922 27.1243 18.475 28.4236C16.1577 29.7228 13.4971 30.3725 10.4932 30.3725C8.60506 30.3725 6.82419 30.0783 5.15059 29.4899C3.477 28.9016 1.91069 28.0681 0.45166 26.9894C0.709136 27.0385 0.966612 27.0752 1.22409 27.0998C1.48156 27.1243 1.73904 27.1365 1.99651 27.1365C3.54137 27.1365 5.01113 26.8424 6.40579 26.254C7.80045 25.6656 9.05564 24.8812 10.1714 23.9006C8.71234 23.8516 7.43569 23.349 6.34142 22.3929C5.24715 21.4368 4.48545 20.1989 4.05632 18.6789C4.27088 18.777 4.47472 18.826 4.66783 18.826H5.27933C5.88011 18.826 6.43797 18.7525 6.95292 18.6054C5.45098 18.2132 4.20652 17.3429 3.21952 15.9946C2.23253 14.6463 1.73904 13.0651 1.73904 11.251V11.1774C2.21108 11.4226 2.68312 11.6309 3.15516 11.8025C3.62719 11.9741 4.14215 12.06 4.70001 12.06C3.84176 11.3735 3.14443 10.491 2.60802 9.41236C2.07161 8.33371 1.80341 7.157 1.80341 5.88223C1.80341 4.5094 2.1038 3.25915 2.70457 2.13147C4.33525 4.38683 6.30923 6.21318 8.62652 7.61052C10.9438 9.00786 13.4542 9.78008 16.1577 9.92717C16.0289 9.33881 15.9646 8.77497 15.9646 8.23565C15.9646 7.20603 16.1362 6.23769 16.4795 5.33065C16.8228 4.4236 17.2949 3.62687 17.8956 2.94046C18.4964 2.25405 19.1938 1.71472 19.9876 1.32249C20.7815 0.930249 21.629 0.734131 22.5302 0.734131C23.4743 0.734131 24.354 0.942506 25.1693 1.35926C25.9847 1.77601 26.6927 2.35211 27.2935 3.08755C28.0659 2.94046 28.7955 2.70757 29.4821 2.38888C30.1687 2.07019 30.8338 1.69021 31.4775 1.24894C30.9625 3.06303 29.997 4.46037 28.5809 5.44097C29.9541 5.19582 31.22 4.80358 32.3787 4.26426Z" fill="#79AC78"/>
</svg>
